<svg fill="none" viewBox="0 0 69 28" xmlns="http://www.w3.org/2000/svg" xmlns:xlink="http://www.w3.org/1999/xlink"><clipPath id="a"><path d="m0 0h69v27.6081h-69z"/></clipPath><g clip-path="url(#a)" fill="#767672"><path d="m11.9028 0c.0517.0220218.1046.0412615.1585.0576369.8288.2126801 1.34.8432271 1.3573 1.6766531.019.92565-.4738 1.67147-1.268 1.91989-.4069.12667-.8452.10793-1.2398-.05303-.2125-.08856-.4298-.16552-.6507-.23055-.66224-.17291-1.2461.13949-1.46454.78329-.07897.23055-.11528.48011-.17291.74928.46109.05764.88587.0974 1.30547.17003 1.35678.23688 2.61388.70374 3.63108 1.67147 1.9776 1.87896 1.8554 4.94463-.2651 6.66053-1.0807.8743-2.3545 1.3256-3.69797 1.5694-1.06513.1954-2.14697.3003-3.21614.4761-.44357.0772-.87905.1953-1.30086.3528-.24162.0926-.45944.2381-.63746.4259-.48358.5101-.31643 1.2317.34582 1.4576.37162.1302.75962.2078 1.15273.2306 1.34294.0616 2.68704.0859 4.03113.1256 1.18215.0346 2.35905.1153 3.50025.4611.1649.0502.3274.1089.4876.1729 1.7384.6917 2.4415 2.0173 2.2992 3.8577-.1493 1.9222-1.2882 3.1452-2.9395 3.9625-1.3631.6749-2.8323.9406-4.33487 1.0576-.12219.0093-.24265.0358-.36427.0542h-2.1925c-.13199-.0184-.26513-.0334-.39655-.0576-.92564-.1539-1.86224-.2623-2.77348-.4767-.93199-.2196-1.79136-.634-2.478387-1.3354-1.14121-1.1677-1.017866-2.8715.301437-3.8346.35908-.2628.78444-.4346 1.18214-.6432.10232-.046.2072-.086.31412-.1199-.0399-.0368-.08185-.0712-.12565-.1032-1.725072-1.0582-1.641499-3.7614-.23055-4.8893.51066-.4092 1.07493-.7176 1.70375-.8698.77867-.1884 1.5706-.3193 2.29625-.4611-.25994-.0657-.60346-.121-.92219-.2403-.61787-.2306-1.25418-.4398-1.82536-.7602-2.669164-1.4986-2.675504-4.61502-1.15274-6.45537.95677-1.15792 2.21556-1.81786 3.64611-2.16599.64842-.1585 1.31643-.23574 1.97695-.34986.09049-.46109.15043-.94697.28472-1.41383.4611-1.60115 1.18098-2.993081 2.98617-3.43227395zm-4.28476 26.8951c1.59999-.0277 2.71756-.1764 3.66626-.4945.664-.2225 1.2784-.5286 1.7337-1.0836.8853-1.0795.5412-2.5199-.7544-3.0173-.4838-.1842-.9924-.2948-1.509-.3279-1.25472-.0779-2.51351-.0986-3.77057-.1274-1.17118-.0265-2.34352-.0185-3.48876-.3234-.09246-.0142-.187.0041-.26744.0519-1.54178.8403-1.78674 2.8818-.45418 4.0254.36254.3124.80692.5544 1.25361.74 1.14524.4773 2.36772.5378 3.59078.5568zm-1.88243-16.6357c.01787.3648 0 .8513.07609 1.321.09726.6216.2453 1.2343.44265 1.8317.18155.5331.60288.8916 1.16253 1.0242 1.11009.2628 2.28012.0069 2.75162-1.4513.0443-.1366.087-.2743.1187-.4144.2951-1.2957.2778-2.60922.2006-3.92334-.0398-.68184-.1493-1.35447-.4433-1.98098-.25817-.54928-.66105-.93372-1.26796-1.08011-1.24265-.30087-2.20922.21959-2.63516 1.4317-.35216 1.0121-.37176 2.06974-.40577 3.24153z"/><path d="m57.8427 4.97893v2.28761c.1274-.09337.2156-.15562.3015-.22133.9861-.75619 2.0132-1.44611 3.2011-1.84899 2.8974-.98444 5.6894.23747 6.951 3.03055 1.2997 2.87613.8802 7.52163-1.9331 10.16883-1.5839 1.4894-3.4853 2.1902-5.6311 2.2963-.8924.0458-1.7866-.0454-2.6513-.2703-.0762-.0136-.1533-.0223-.2306-.026v.2963c0 1.1049-.0173 2.2092.0035 3.3135.0112.4403.0638.8786.1573 1.309.1153.532.4738.8645.9966 1.0127.2766.0772.5602.1308.8386.2034.2011.0519.3585.1562.3337.3971-.0225.226-.1729.3349-.3833.3626-.1048.0119-.2103.0169-.3158.015-2.4784 0-4.9568 0-7.4352 0-.1153 0-.2571.019-.3349-.0392-.1153-.0876-.2461-.2306-.2565-.3608-.0086-.1032.1297-.2669.2427-.3211.1948-.0945.4225-.1199.634-.1844.7533-.2306 1.1654-.7458 1.2444-1.5222.0373-.3531.0566-.7078.0576-1.0628.0039-4.5618.0039-9.124 0-13.6865-.0037-.29743-.0229-.59447-.0576-.8899-.0721-.67262-.4035-1.17118-1.0271-1.45591-.2778-.12738-.5677-.23055-.8559-.33429-.1833-.06629-.3931-.11528-.3954-.35447s.2161-.30548.396-.35331c.6392-.16946 1.2887-.30145 1.9239-.48531 1.2974-.37579 2.5885-.77579 3.8818-1.16599.102-.03113.2012-.06455.3441-.11009zm6.8853 8.42017c-.087-.7493-.1331-1.5107-.2714-2.2524-.2237-1.19543-.6744-2.30206-1.5453-3.18967-.7233-.73718-1.5867-1.12104-2.6438-.99481-.9308.11066-1.6715.58905-2.3377 1.20173-.0577.05302-.0813.1683-.0813.25475 0 2.536-.011 5.0686.0075 7.6023.0063.8548.1078 1.7055.4495 2.5055.3038.7124.8012 1.215 1.5781 1.3833 1.0773.2334 2.0352-.0248 2.864-.7493.5845-.5089.9735-1.1562 1.26-1.8669.5031-1.2461.653-2.5562.7204-3.8945z"/><path d="m42.909 20.8688c-1.8807-.0449-3.6421-.4703-5.1873-1.5809-2.0519-1.4773-3.0387-3.5395-3.1557-6.0266-.1026-2.1757.4853-4.14404 1.966-5.7867 1.2727-1.41095 2.8911-2.19423 4.751-2.48357 2.075-.32277 4.0876-.10951 5.9574.89453 2.321 1.24668 3.6311 3.21786 3.9769 5.82134.2536 1.9245-.0536 3.7568-1.091 5.4178-1.2727 2.041-3.1701 3.1545-5.5032 3.5609-.5666.0991-1.1447.1245-1.7141.1832zm3.8155-8.0201c-.0789-.9752-.1256-1.9539-.2443-2.92395-.1309-1.07147-.4202-2.10029-1.0029-3.03401-1.166-1.86743-4.0346-1.85879-5.1649.05188-.3859.65371-.6556 1.3694-.7971 2.11527-.4576 2.35161-.449 4.71411-.098 7.07551.1459.9798.4202 1.9326 1.007 2.7591 1.1734 1.653 3.6559 1.732 4.8772.1152.3677-.4858.634-1.0766.8288-1.6587.4813-1.4554.5337-2.9758.5914-4.5003z"/><path d="m24.6637 20.8681c-1.9319-.049-3.7302-.5009-5.2997-1.6715-1.7158-1.279-2.6674-3.015-2.9562-5.1147-.2115-1.5383-.0668-3.0484.5476-4.48876.8772-2.05764 2.3885-3.46744 4.4957-4.18848 2.5763-.88299 5.1354-.78789 7.5648.48761 2.3741 1.24611 3.6807 3.28069 3.9856 5.93253.257 2.2369-.2265 4.2997-1.664 6.0778-1.268 1.5718-2.9579 2.4392-4.9262 2.7787-.5781.1009-1.1654.1274-1.7476.1868zm-3.774-8.0415c.0784.9942.1274 1.9919.2438 2.9815.1227 1.0438.381 2.0582.9654 2.9551.2726.4265.6467.7789 1.0888 1.0254.4421.2466.9384.3797 1.4446.3875.5061.0078 1.0063-.1101 1.4558-.343s.8342-.5736 1.1197-.9915c.464-.6646.728-1.4162.8836-2.2006.4651-2.3407.4611-4.6934.1032-7.04498-.1528-1.00058-.4352-1.96888-1.0329-2.81095-1.2472-1.7562-3.8138-1.7366-5.0023.05763-.2899.45233-.5172.9419-.6755 1.45534-.4755 1.46801-.5331 2.99716-.5942 4.52856z"/></g></svg>