<svg fill="none" viewBox="0 0 100 22" xmlns="http://www.w3.org/2000/svg"><g fill="#949490"><path d="m72.3664 13.3783c-1.9048 0-3.7482 0-5.5973 0-.2944.0072-.5888-.0134-.8792-.0615-.7488-.1465-1.1151-.614-1.1283-1.3891-.0132-.8382.3341-1.3334 1.0785-1.5093.212-.0527.4292-.0817.6476-.0864 2.3943 0 4.7871-.0147 7.1799 0 1.2308 0 1.7129.5158 1.7203 1.7583.0366 6.2158-5.1007 10.6541-11.2476 9.7149-4.5995-.7033-7.7777-3.9563-8.4166-8.591-.4102-2.9818-.1465-5.86114 1.3994-8.49865 2.0909-3.57677 5.3585-4.945349 9.3485-4.684528 3.0844.20221 5.6399 1.496058 7.3924 4.124788.3396.53543.6034 1.11533.7839 1.72317.2843.90409-.129 1.67043-.951 1.93711-.822.26669-1.4814-.05128-1.8682-.94657-.8909-2.0514-2.447-3.37016-4.6171-3.77751-4.012-.75609-7.5917 1.26308-8.4518 5.81865-.463 2.45434-.2564 4.86624 1.1634 7.03334 1.6851 2.5643 4.2098 3.2999 6.859 2.9306 3.0185-.4293 4.9717-2.3283 5.5842-5.1285.0093-.1224.0093-.2454 0-.3678z"/><path d="m10.6968 15.9087c-1.53712 0-3.07713.0366-4.61129-.019-.58611-.0206-.86891.2036-1.11362.6901-.67696 1.3495-1.38763 2.6844-2.09682 4.0193-.49234.9275-1.23817 1.2147-2.042615.8103-.8044429-.4044-1.062334-1.2748-.586115-2.1979 3.07515-5.9833 6.16007-11.96362 9.25475-17.94101.26815-.518714.59641-.968558 1.25281-.977349.6872-.010257 1.0448.439586 1.3188.986139l7.7807 15.17302c.4674.9114 1.0081 1.7965 1.3641 2.7504.1847.4908.2286 1.2074 0 1.647-.548 1.0564-1.9297.9407-2.5071-.1466-.7092-1.3349-1.4125-2.6727-2.0646-4.0339-.2784-.5861-.6095-.8074-1.2777-.781-1.5517.0615-3.1167.0205-4.6713.0205zm3.9724-3.0361-3.9124-7.51543-3.86978 7.51543z"/><path d="m78.5276 19.8606c.0808-.2583.1787-.5109.2931-.7561 3.0478-5.9491 6.099-11.89569 9.1536-17.83987.2638-.515785.6111-.964163 1.2602-.971489.6843-.010257 1.0433.439586 1.3187.987599 3.0625 5.9647 6.1254 11.92986 9.1889 17.89556.4909.9598.2315 1.8331-.6155 2.236-.8469.403-1.5473.0865-2.0616-.9114-.696-1.3656-1.3833-2.7415-2.1159-4.0896-.0814-.1306-.1905-.2416-.3197-.3252-.1291-.0836-.2751-.1376-.4276-.1583-3.294-.0323-6.5884-.0323-9.8834 0-.1424.0167-.2794.0648-.401.1408s-.2248.178-.3023.2987c-.8088 1.4463-1.562 2.9233-2.3518 4.3798-.378.6975-.9715.9627-1.6396.7868-.6682-.1758-1.1093-.7604-1.0961-1.6733zm14.6148-6.966-3.9079-7.53743c-1.3349 2.59356-2.5921 5.03323-3.8772 7.53163z"/></g><path d="m37.5269 2.91411c4.0867.00733 7.3528 3.26173 7.3103 7.27959-.041 4.0793-3.2456 7.2136-7.3674 7.2062-.9512-.0035-1.8923-.1944-2.7697-.5617-.8774-.3672-1.6739-.9037-2.3439-1.5788-.6701-.6751-1.2006-1.4756-1.5613-2.3557s-.5445-1.8226-.5409-2.7738c.0035-.95113.1944-1.89227.5617-2.76966.3672-.87739.9037-1.67384 1.5788-2.34389s1.4756-1.20057 2.3557-1.56128c.8801-.3607 1.8226-.54452 2.7738-.54096zm-3.7013 7.22969c0 2.1496 1.5972 3.779 3.7072 3.7746 2.0587.003 3.7877-1.7246 3.7877-3.7599 0-1.99719-1.7378-3.72916-3.735-3.73209-2.1554-.00293-3.757 1.58397-3.7599 3.71739z" fill="#92928e"/><path d="m33.8281 10.1432c0-2.13344 1.6118-3.72035 3.7541-3.71741 1.9972 0 3.7306 1.7349 3.735 3.73211.0059 2.0353-1.7232 3.7628-3.7819 3.7628-2.11 0-3.7101-1.6279-3.7072-3.7775z" fill="#797975"/></svg>