<svg fill="none" viewBox="0 0 97 20" xmlns="http://www.w3.org/2000/svg" xmlns:xlink="http://www.w3.org/1999/xlink"><clipPath id="a"><path d="m0 0h97v19.3208h-97z"/></clipPath><g clip-path="url(#a)" fill="#767672"><path d="m.00071341 3.49378c.74393159-.01926 1.49000659-.01355 2.23108659-.06562.48644-.03423.60983.30671.72395.62411.56348 1.57345 1.10128 3.15546 1.65121 4.7332.29719.85211.59937 1.70283.90655 2.55203.02069.0578.07489.1027.16619.2226.13338-.2404.27175-.423.34165-.6284.35663-1.03354.68473-2.0749 1.03423-3.10984.3495-1.03495.71326-2.06846 1.06989-3.09627.11484-.33096.19972-.67974.36876-.98002.08488-.1505.32453-.28531.50356-.29672.51141-.03923 1.02851-.01712 1.54351-.01284.408 0 .5257.16262.3866.57061-.214.62553-.4515 1.2425-.6762 1.86375-.37659 1.03922-.74963 2.07987-1.12623 3.1191-.36305.99856-.73324 1.99713-1.09343 3.00353-.25107.6976-.51141 1.393-.7311 2.1006-.20185.6512-.33523.776-1.01996.7746-.54208 0-1.08416-.005-1.62624 0-.13708.0093-.27324-.0285-.38594-.1071-.11271-.0786-.19521-.1933-.23388-.3252-.44222-1.2296-.86447-2.4664-1.3124-3.694-.45292-1.24031-.93437-2.46998-1.38943-3.70891-.356635-.96219-.679029-1.93365-1.032807-2.89513-.055634-.1505-.198287-.26961-.300283-.40299z"/><path d="m80.2664 9.14121c0-1.69328 0-3.3868 0-5.08056 0-.59272.0357-.6241.617-.62482.393 0 .7846-.0057 1.179 0 .4458.00856.5406.10842.5506.56205.0064.29814-.01.597.0143.89372.0078.10128.107.19543.1647.29243.0764-.06633.1719-.11982.2247-.20113.4701-.7204 1.1755-1.08559 1.9651-1.33808 1.0342-.33024 2.0977-.18188 3.1497-.20685.3702-.00927.4993.26961.6049.56062.4978 1.41131.994 2.82333 1.4885 4.23607.3445.99357.6762 1.99214 1.0164 2.98714.0322.117.0843.2275.1541.3267.0613.0763.1812.1633.2596.1505.0785-.0129.1384-.147.1705-.2404.4993-1.4541.9945-2.90987 1.4857-4.3673.3474-1.03637.6805-2.07773 1.0214-3.11624.1113-.33809.3089-.55706.7054-.54565.4993.01427 1.0029 0 1.505.005.4116 0 .545.18544.403.55919-.5578 1.47574-1.1291 2.94648-1.679 4.42222-.4615 1.23894-.8866 2.49068-1.3509 3.72898-.5963 1.5905-1.184 3.1868-1.8374 4.7546-.3659.8773-.8794 1.6847-1.8003 2.1141-.1653.0885-.3454.1462-.5313.1704-.8916.0564-1.7832.0885-2.6776.132-.2539.0121-.3902-.1127-.3959-.3566-.0114-.4473-.0057-.8945-.0035-1.341 0-.2781.1626-.3637.4215-.3737.4727-.007.9446-.0399 1.4137-.0985.6284-.0927.9272-.5748 1.2225-1.0813.5628-.9572.2546-1.8323-.1284-2.7396-.3987-.9436-.7389-1.9122-1.1055-2.8694-.3434-.89543-.6864-1.79033-1.0293-2.68476-.1733-.45293-.3566-.90228-.5092-1.36233-.1605-.48217-.3417-.60984-.8438-.6505-1.6612-.1348-2.8531 1.12268-3.1819 2.54421-.2453 1.05134-.1769 2.09988-.1961 3.15258-.0164.948 0 1.8966-.0057 2.8452 0 .4936-.0764.5592-.5707.5599h-1.3423c-.4993 0-.5471-.042-.5506-.5627-.0058-.7846 0-1.5692 0-2.3581.0014-.9301.0021-1.8628.0021-2.79809z"/><path d="m78.1028 9.35211c0 .98929-.005 1.97789 0 2.96649.005.679.1634.8473.8317.8609.2625.0057.3752.1077.3787.3566 0 .0949.0079.1897.0057.2853-.0221 1.3245.2076.9943-1.1012 1.2989-.7383.1719-1.4558.0128-2.0164-.5707-.0647-.0687-.1186-.1468-.1598-.2318-.2282-.4536-.3324-.46-.7504-.1911-1.3858.8908-2.8851 1.2339-4.5256.9044-.8516-.1712-1.5734-.5321-2.1547-1.1897-.4679-.53-.642-1.1569-.6598-1.8303-.0349-1.5392.4365-2.67468 2.0948-3.20963.7169-.22967 1.4679-.35663 2.2111-.49928.7718-.14265 1.5521-.2368 2.3281-.35663.6163-.09486 1.0635-.49001 1.137-.99857.1127-.78458-.1142-1.28387-.7846-1.55063-1.0942-.44293-2.2111-.46148-3.2404.1341-.3566.2047-.5891.65049-.8145 1.02424-.1534.25535-.3031.3766-.6027.36305-.4729-.02068-.9486-.00499-1.4265-.00713-.4166 0-.5378-.10771-.4594-.49929.2076-1.03851.7033-1.90725 1.6491-2.44006 1.4393-.81027 2.9957-.94864 4.6041-.71968.8866.12624 1.7118.38159 2.4108.96861.6148.51426.9836 1.1619 1.0107 1.95433.0356 1.05491.0085 2.11197.0085 3.16831zm-2.4543 1.00639c0-.3038.0107-.58913 0-.87301-.0114-.22824-.1341-.28031-.3623-.23181-.8445.1776-1.7019.301-2.5385.50856-.5828.14265-1.184.31596-1.6962.61416-.843.49-.9358 2.1347.2033 2.5006.5124.1595 1.0417.2584 1.577.2946.6546.0492 1.3066-.1242 1.8502-.4921.8474-.5606 1.0528-1.393.9686-2.321z"/><path d="m37.5123 9.29145c-.0314-1.76533.3859-3.24321 1.5121-4.45932.8409-.90727 1.9158-1.36946 3.1284-1.56275 1.2796-.20542 2.5199-.07703 3.7004.42796 1.2303.52567 2.1077 1.4415 2.6312 2.67758.6608 1.53451.7516 3.25462.256 4.85018-.5934 1.9757-1.8915 3.281-3.9721 3.7489-1.3677.3231-2.8027.2022-4.097-.3452-1.1705-.485-2.0057-1.3317-2.5435-2.4879-.4429-.9543-.654-1.9436-.6155-2.84945zm2.368-.10129c.1098.51141.2004 1.02784.3324 1.53354.4436 1.7004 1.7746 2.6968 3.6155 2.4251.8288-.1234 1.4979-.535 1.9158-1.2326 1.0699-1.7831 1.0913-3.60549.0671-5.42074-.9273-1.6405-3.4294-1.81668-4.6541-.57917-.8958.90584-1.1833 2.03066-1.2767 3.27316z"/><path d="m52.6524 4.96173c.4001-.35663.7767-.7418 1.2061-1.05634.8823-.64622 1.9044-.83024 2.9679-.70399 1.1369.13552 2.1441.54493 2.8024 1.56917.4615.71754.5457 1.52282.5507 2.33736.0149 2.41083.0049 4.82237.0099 7.23387 0 .3666-.1326.5507-.5299.5321-.4872-.0228-.9765-.0221-1.4636-.0043-.3531.0129-.4893-.1348-.4872-.4771.0071-1.0029.0043-2.005 0-3.0071-.0064-1.42228.0043-2.84524-.0364-4.26677-.0206-.71326-.2853-1.36518-.9607-1.72253-1.1933-.63123-2.9322-.24108-3.6377 1.0485-.348.63337-.4194 1.30954-.4236 1.99713-.0122 1.89657-.0043 3.79317-.0072 5.68967 0 .6805-.0613.7368-.7475.7361-.3794 0-.7589 0-1.1412 0-.5242-.0057-.6177-.0927-.6191-.617-.0033-1.8288-.0033-3.6576 0-5.48638 0-1.54445 0-3.08985 0-4.6362 0-.6027.0856-.69043.6719-.69543.393 0 .7846.01427 1.179-.00499.3773-.01926.5093.15549.5043.50927-.0043.34023.0207.68045.0321 1.02139z"/><path d="m17.9897 9.15987c-.0928 1.14553.1355 2.21113.8858 3.11193.7682.923 1.806 1.0699 2.8852.8331.9201-.2033 1.5092-.8559 1.7881-1.7646.2083-.6783.2332-.7011.9273-.7011h1.383c.2739 0 .3694.1383.3017.3923-.3695 1.378-.9365 2.6255-2.2511 3.3744-1.159.6605-2.4001.8702-3.7146.6869-1.1241-.1562-2.1398-.5371-2.9922-1.3238-.8356-.7646-1.3928-1.7858-1.5834-2.9023-.2582-1.42652-.2504-2.86445.271-4.24747.6577-1.74249 1.8773-2.86231 3.719-3.281 1.1226-.25535 2.2325-.1883 3.3452.05278 1.5456.33595 2.9721 1.81953 3.2182 3.36446.0628.39086-.0157.48787-.4144.49215-.5157.00499-1.0328.02853-1.5449-.01142-.1755-.01426-.3866-.15977-.4943-.30813-.204-.27959-.3153-.62624-.5178-.90655-.3752-.51854-.9144-.78459-1.545-.86091-.8723-.10699-1.7011-.03566-2.4251.54636-.8059.64978-1.0927 1.55135-1.236 2.5171-.0435.30742-.0057.62411-.0057.9358z"/><path d="m28.109.00366745c.7511 0 1.4415.00784675 2.1312-.00356544.2903-.00499283.2853.17403499.2853.37303499v2.437223c0 .56062.0628.62053.6363.62481.4065 0 .8138.00642 1.2196 0 .341-.00499.4993.15335.4872.49429-.0086.28531-.0114.57061 0 .85592.0164.33309-.1498.47218-.4608.47574-.4336.00428-.868 0-1.301.00713-.4557.00928-.5798.12554-.5806.58702 0 1.93651-.0092 3.87301.0129 5.80953.0114 1.0093.4229 1.3802 1.4415 1.3637.868-.0142.8973-.1626.8887.9016-.0078.9372 0 .9551-.9272.9843-.8082.025-1.612.0799-2.4116-.1968-.8594-.2982-1.2268-.9323-1.3844-1.739-.0713-.3673-.0642-.7539-.0656-1.1326-.005-1.96365 0-3.92727 0-5.89088 0-.64193-.0492-.68758-.6955-.689-.027.00178-.0542.00178-.0813 0l-1.0506-.15122c-.0128-.46932-.0478-.94008-.02-1.40726.0065-.09772.239-.24394.3795-.25963.3376-.02736.6768-.03117 1.015-.01141.3302.00856.4586-.14266.4543-.46862-.01-.8124 0-1.62481 0-2.437925.0029-.160484.0171-.318828.0271-.52638755z"/><path d="m36.2627 9.19075v5.03495c0 .6012-.0478.6419-.6498.6476-.4465 0-.8937-.01-1.3402.0036-.3516.0107-.4936-.1612-.4993-.4893 0-.0949 0-.1898 0-.2853 0-3.3024 0-6.60483 0-9.90724 0-.71326.0443-.75463.7632-.75534.393 0 .7846-.00499 1.179 0 .4658.00856.5443.08345.5457.55135.0033 1.73322.0038 3.46645.0014 5.19968z"/><path d="m11.7266 9.14159c0-1.66428 0-3.32856 0-4.99283 0-.63695.0713-.70827.6911-.71326.393 0 .7846-.00428 1.1783 0 .5407.0057.6462.10627.6477.64193.0035 1.31312 0 2.62623 0 3.93935v6.17182c0 .6256-.0542.6783-.6655.6812-.3388 0-.6769 0-1.0157 0-.8081 0-.8338-.0271-.8338-.8559-.0014-1.6239-.0021-3.248-.0021-4.87231z"/><path d="m66.5686 5.9097c.0878 1.21255-1.1134 2.37659-2.3673 2.36589-1.5178-.01284-2.4879-1.17688-2.4786-2.40583.0107-1.37731 1.0699-2.43579 2.4643-2.44007 1.2247-.00143 2.4544.97289 2.3816 2.48001z"/><path d="m66.569 12.4692c.0792 1.4201-1.1975 2.4215-2.3537 2.4315-.6505.0095-1.2783-.2389-1.7461-.6909s-.7376-1.0709-.7504-1.7214c-.0107-1.276 1.0228-2.3994 2.4137-2.4443 1.2625-.0421 2.5321 1.102 2.4365 2.4251z"/></g></svg>