<svg fill="none" viewBox="0 0 91 24" xmlns="http://www.w3.org/2000/svg" xmlns:xlink="http://www.w3.org/1999/xlink"><clipPath id="a"><path d="m0 0h91v23.3286h-91z"/></clipPath><g clip-path="url(#a)" fill="#767672"><path d="m58.2763.89444c-.6783 0-1.3137.005374-1.949-.005971-.0902 0-.1791-.083002-.2687-.127787.0854-.038813.1708-.112259.2562-.112856 2.5573-.005971 5.1148-.005971 7.6725 0 .086 0 .1719.071059.2579.108678-.0872.045979-.1743.130173-.2627.131965-.6354.011345-1.2707.005971-1.9371.005971-.0066.12779-.0167.23228-.0161.33738.0131 5.91316.0273 11.82648.0424 17.74008.006 2.1783 1.583 3.8479 3.7493 4.0163 1.5299.1194 2.9523-.1559 4.214-1.0653 1.0539-.7601 1.7317-1.7956 2.1341-3.0179.028-.1056.0393-.2151.0335-.3242 0-5.7938 0-11.58769 0-17.38182v-.30454h-1.18c-.3779 0-.7565.006568-1.1345-.005971-.0729 0-.1433-.078821-.215-.119426.0719-.04592.1474-.085863.2257-.119426.0592-.010636.1197-.011845.1792-.003582h20.4218v8.021225l-.0597.03881c-.0389-.07165-.0992-.13972-.1117-.21556-.1379-.82284-.2269-1.65644-.4096-2.46913-.2735-1.21874-.7763-2.33954-1.6595-3.25554-1.0151-1.04975-2.2917-1.59075-3.7022-1.75317-1.1112-.128382-2.2416-.085985-3.3636-.116438-.2585-.007166-.5165 0-.7995 0v10.289668c1.3471.0717 2.6835.086 3.8216-.8252.4078-.326.6652-.77625.8085-1.2659.172-.58876.2848-1.19425.424-1.79138.0215-.09375.0436-.1875.0657-.28065l.1021.00358c.018.08563.03.17243.0358.25975v8.4195c0 .086-.052.1726-.08.2586-.0496-.0806-.1248-.1553-.1439-.2389-.0938-.4269-.1601-.8599-.2586-1.2856-.5064-2.1897-2.3927-3.0215-4.0473-2.9379-.2389.012-.4777.043-.7309.0669v10.9973c1.1118 0 2.2225.0096 3.3326 0 1.064-.0113 2.0612-.3075 3.0041-.7834 2.1138-1.0683 3.3069-2.8376 3.7858-5.109.1511-.7166.169-1.4588.2556-2.1885.0083-.0705.0716-.1344.1093-.2007.0406.0598.1194.1254.1194.1881.0048 2.7468.0048 5.4936 0 8.2404-.0069.0332-.0171.0656-.0305.0967h-15.9714c-.0491.0082-.0994.007-.1481-.0035-.0659-.0356-.1286-.0767-.1875-.123.0598-.0418.123-.1195.1852-.1195.4777-.0101.9554-.0059 1.4331-.0059h.2018v-21.639973h-3.9673v.375593c0 5.57479-.0126 11.14958.0131 16.72438.0042.8581-.2388 1.6009-.6568 2.3109-1.0331 1.7424-2.5958 2.699-4.577 2.9211-2.1497.2389-4.2307-.074-6.1588-1.107-1.3734-.7369-2.3605-1.8183-2.6949-3.3882-.0843-.4292-.1243-.866-.1194-1.3035-.0191-5.3741-.0322-10.75008-.0394-16.12782z"/><path d="m16.8828 11.6066c.04-3.01197.9871-5.45542 2.6769-7.6206 1.254-1.61225 2.7982-2.8501 4.7723-3.478874 2.1186-.674158 4.1626-.4281423 6.074.661024 3.1851 1.81527 5.1401 4.60744 5.736 8.17289.7398 4.42536-.6461 8.32516-3.8139 11.45596-3.6729 3.6293-9.3444 3.1528-12.557-.9047-1.4874-1.8786-2.3156-4.0414-2.6871-6.3893-.1116-.7046-.1522-1.4217-.2012-1.8964zm4.0641.4735c.0836 1.3495.1409 2.702.2579 4.0491.1129 1.2994.3428 2.5814.8247 3.8043.5708 1.4492 1.4928 2.5444 3.0823 2.8818.5836.1211 1.1797.1708 1.7753.148 1.534-.0555 2.7384-.7338 3.5726-2.0427.4317-.6778.7255-1.4122.9459-2.1808.418-1.4713.5971-2.9808.6819-4.5029.1499-2.6172.1666-5.23144-.2621-7.82895-.2234-1.35071-.6061-2.64707-1.3066-3.84312-1.688-2.879353-6.0035-3.045354-7.7841-.05135-.5433.92749-.9418 1.93249-1.1817 2.98027-.5142 2.16578-.59 4.37038-.6061 6.58635z"/><path d="m53.8467 0v7.98242l-.0806.01731c-.028-.09315-.0597-.18511-.0836-.28065-.4114-1.82542-1.0927-3.53201-2.2577-5.01588-.9315-1.1859-2.0947-2.020085-3.6025-2.328801-1.7914-.36962263-3.0877.194665-4.0008 1.783031-.6634 1.15723-.978 2.42911-1.1894 3.72966-.4515 2.77605-.43 5.57181-.3165 8.36931.0651 1.5938.2388 3.1738.6741 4.7174.2717.9637.6444 1.8815 1.2797 2.6715.7458.9274 1.7149 1.4015 2.9074 1.383 1.2193-.0191 2.3832-.2484 3.3165-1.1089.6902-.6359 1.1029-1.4158 1.0981-2.3885-.0096-1.8021-.003-3.6037-.003-5.4058v-.3583c-.5804 0-1.1345-.003-1.6881 0-.1833 0-.2985-.0346-.2072-.2639h7.4271c.0872.2203-.0125.2663-.2018.2645-.5255-.006-1.051 0-1.6159 0v9.1462c-.1057-.1116-.1648-.1475-.1839-.1982-.3583-.9357-1.2247-1.3573-2.2691-1.125-.8461.1887-1.6546.5422-2.4822.8163-.7709.2549-1.5287.5971-2.3211.7314-1.5155.252-2.9695-.0871-4.3286-.784-2.0397-1.045-3.3821-2.7384-4.3041-4.7872-1.0354-2.3019-1.5256-4.7322-1.2462-7.2402.464-4.15836 2.4399-7.41391 6.1194-9.524757 1.506-.8634477 3.1188-.934506 4.7615-.423364.5971.185707 1.1943.383357 1.7723.61564 1.0993.439491 2.2261.102711 2.8871-.8956931.0215-.0262737.0609-.0417987.1391-.0985259z"/><path d="m10.3456 23.0692c-.0597-.1505-.1015-.2484-.1379-.3488-2.58955-7.1671-5.1781-14.33522-7.76566-21.50435-.08181-.227503-.1881-.298561-.42575-.29259-.66461.017317-1.32981.00597-1.9920254.00597-.1050947-.317672.1062894-.270499.2651254-.270499h7.25452c.14928 0 .30214-.019108.44665.007763.07942.015525.1445.108678.21616.166599l-.05673.09793h-2.01889l5.8519 15.903877c1.7364-5.3377 3.446-10.59182 5.1711-15.895518h-2.0135c-.0806-.217952-.0185-.283635.1737-.283038 1.2934.004777 2.5872.004777 3.8814 0 .1791 0 .2711.045977.1911.272886-.5273 0-1.0629.01254-1.598-.005374-.2442-.008359-.3547.059714-.4341.306924-2.2929 7.1743-4.5919 14.34642-6.8968 21.51632-.0293.0896-.0621.178-.1123.3219z"/></g></svg>