<svg viewBox="0 0 318.53 49.68" xmlns="http://www.w3.org/2000/svg">
    <g fill="#484036">
        <path id="g" d="m11.23 46.62c-3.55-2.04-6.31-4.94-8.28-8.71s-2.95-8.12-2.95-13.07 1.06-9.3 3.17-13.07 5.1-6.67 8.96-8.71c3.87-2.04 8.34-3.06 13.43-3.06 4.56 0 8.59.73 12.1 2.2 3.5 1.46 6.23 3.56 8.17 6.3s2.92 5.93 2.92 9.58v.58h-8.57v-.58c0-3.5-1.24-6.16-3.71-7.96s-6.18-2.7-11.12-2.7c-5.81 0-10.12 1.4-12.92 4.21s-4.21 7.21-4.21 13.21 1.37 10.33 4.1 13.14c2.74 2.81 6.96 4.21 12.67 4.21s9.88-.86 12.35-2.59 3.71-4.63 3.71-8.71v-.65h-17.87v-5.9h25.56v24.62h-7.06v-10.44h-.5c-1.01 3.55-3.02 6.3-6.05 8.24-3.02 1.94-6.86 2.92-11.52 2.92s-8.83-1.02-12.38-3.06z"/>
        <path id="d" d="m77.69.72c4.94 0 9.25.97 12.92 2.92 3.67 1.94 6.5 4.73 8.5 8.35 1.99 3.62 2.99 7.91 2.99 12.85s-1 9.23-2.99 12.85-4.82 6.41-8.5 8.35-7.98 2.92-12.92 2.92h-21.96v-48.24zm0 41.26c5.66 0 9.78-1.33 12.35-4 2.57-2.66 3.85-7.04 3.85-13.14s-1.28-10.48-3.85-13.14-6.68-4-12.35-4h-14.26v34.28z"/>
        <path id="m" d="m107.85.72h10.58l13.9 27.94 4.39 10.01h.58l4.25-10.01 13.75-27.94h10.58v48.24h-7.78v-29.59l.29-6.98h-.58l-2.95 6.98-13.32 26.71h-9.36l-13.32-26.71-2.95-6.98h-.58l.29 6.98v29.59h-7.78v-48.24z"/>
        <path id="d" d="m195.48.72c4.94 0 9.25.97 12.92 2.92 3.67 1.94 6.5 4.73 8.5 8.35 1.99 3.62 2.99 7.91 2.99 12.85s-1 9.23-2.99 12.85-4.82 6.41-8.5 8.35c-3.67 1.94-7.98 2.92-12.92 2.92h-21.96v-48.24zm0 41.26c5.66 0 9.78-1.33 12.35-4 2.57-2.66 3.85-7.04 3.85-13.14s-1.29-10.48-3.85-13.14c-2.57-2.66-6.69-4-12.35-4h-14.26v34.28z"/>
        <path id="e" d="m225.65.72h38.59v6.98h-30.82v13.54h29.74v6.91h-29.74v13.82h30.82v6.98h-38.59z"/>
        <path id="v" d="m266.33.72h9.22l16.7 40.39h.58l16.55-40.39h9.14l-20.59 48.24h-11.02z"/>
    </g>
</svg>